<svg width="23" height="24" viewBox="0 0 23 24" fill="none" xmlns="http://www.w3.org/2000/svg">
<path fill-rule="evenodd" clip-rule="evenodd" d="M22.9803 10.0038C22.9937 10.1597 23 10.3178 23 10.477V18.0538C23 21.3378 20.18 24 16.7012 24H14.0539V19.8932C14.0539 18.5619 12.9105 17.4826 11.5002 17.4826H11.4998C10.0895 17.4826 8.94642 18.5619 8.94642 19.8932V24H6.29875C2.82 24 0 21.3378 0 18.0538V10.477C0 10.3178 0.00668247 10.1597 0.0196957 10.0038C0.125208 8.73267 0.65242 7.57414 1.46874 6.65371L1.49441 6.63155C1.84225 6.24475 2.24144 5.90039 2.68248 5.60785L7.85823 1.14876C8.69424 0.428484 10.0525 0 11.5009 0C12.9496 0 14.3075 0.428484 15.1439 1.14876L20.326 5.61348C20.7607 5.90264 21.1549 6.2425 21.4993 6.62404C22.3339 7.54936 22.8734 8.71915 22.9803 10.0038Z" fill="#747474"/>
</svg>
