<svg width="25" height="25" viewBox="0 0 25 25" fill="none" xmlns="http://www.w3.org/2000/svg">
<path d="M23.3314 20.245L18.4808 15.3944C19.4213 13.913 19.9652 12.1568 19.9652 10.2768C19.9652 4.99444 15.6681 0.696442 10.3858 0.696442C5.10343 0.696442 0.807373 4.99444 0.807373 10.2768C0.807373 15.5591 5.10343 19.8572 10.3868 19.8572C12.1742 19.8572 13.8485 19.365 15.2812 18.5093L20.1747 23.4028C22.2642 25.4894 25.422 22.3346 23.3314 20.245ZM3.77699 10.2768C3.77699 6.63275 6.74271 3.66703 10.3868 3.66703C14.0308 3.66703 16.9965 6.63178 16.9965 10.2768C16.9965 13.9218 14.0308 16.8866 10.3868 16.8866C6.74271 16.8866 3.77699 13.9208 3.77699 10.2768ZM5.73594 8.5576C7.66956 4.07539 14.1799 4.59486 15.406 9.28757C12.9363 6.3891 8.59056 6.07723 5.73594 8.5576Z" fill="#747474"/>
</svg>
